<?xml version="1.0" encoding="UTF-8"?>
<!DOCTYPE svg PUBLIC "-//W3C//DTD SVG 1.1//EN" "http://www.w3.org/Graphics/SVG/1.1/DTD/svg11.dtd">
<svg xmlns="http://www.w3.org/2000/svg" version="1.1" width="457px" height="546px" style="shape-rendering:geometricPrecision; text-rendering:geometricPrecision; image-rendering:optimizeQuality; fill-rule:evenodd; clip-rule:evenodd" xmlns:xlink="http://www.w3.org/1999/xlink">
<g><path style="opacity:0.102" fill="#453b29" d="M 171.5,23.5 C 138.833,22.1667 106.167,22.1667 73.5,23.5C 72.0783,23.2914 70.745,22.7914 69.5,22C 105.167,21.3333 140.833,21.3333 176.5,22C 175.095,23.2692 173.429,23.7692 171.5,23.5 Z"/></g>
<g><path style="opacity:0.196" fill="#342e24" d="M 76.5,24.5 C 78.0269,24.427 79.0269,25.0937 79.5,26.5C 77.9731,26.573 76.9731,25.9063 76.5,24.5 Z"/></g>
<g><path style="opacity:1" fill="#dac799" d="M 152.5,469.5 C 152.593,477.244 153.426,484.911 155,492.5C 156.333,493.167 157.667,493.833 159,494.5C 158.925,498.154 160.425,500.82 163.5,502.5C 163.291,503.086 162.957,503.586 162.5,504C 138.33,504.168 114.33,504.668 90.5,505.5C 85.3054,505.821 80.3054,505.487 75.5,504.5C 78.1979,504.155 80.1979,502.822 81.5,500.5C 81.8333,499.5 82.5,498.833 83.5,498.5C 86.4563,496.212 88.123,493.212 88.5,489.5C 89.3705,486.888 90.0372,484.221 90.5,481.5C 91.1667,480.167 91.8333,478.833 92.5,477.5C 93.29,476.391 93.79,475.058 94,473.5C 94.4952,331.519 94.6619,189.686 94.5,48C 91.3612,40.2508 88.0279,32.5841 84.5,25C 111.19,24.798 137.857,24.298 164.5,23.5C 164.5,24.5 164.5,25.5 164.5,26.5C 161.985,27.164 159.819,28.4974 158,30.5C 154.42,36.8112 151.587,43.3112 149.5,50C 148.316,54.5096 148.316,59.0096 149.5,63.5C 150.086,63.7093 150.586,64.0426 151,64.5C 151.167,199.667 151.667,334.667 152.5,469.5 Z"/></g>
<g><path style="opacity:0.388" fill="#4a4235" d="M 79.5,26.5 C 82.1667,27.1667 83.8333,28.8333 84.5,31.5C 82.5,30.1667 80.8333,28.5 79.5,26.5 Z"/></g>
<g><path style="opacity:0.086" fill="#3e3626" d="M 84.5,31.5 C 86.6689,33.3403 88.0023,35.6737 88.5,38.5C 86.412,36.6644 85.0787,34.3311 84.5,31.5 Z"/></g>
<g><path style="opacity:0.804" fill="#b9af94" d="M 154.5,52.5 C 154.167,194.001 154.5,335.334 155.5,476.5C 155.5,477.5 155.5,478.5 155.5,479.5C 155.5,480.167 155.5,480.833 155.5,481.5C 154.71,480.391 154.21,479.058 154,477.5C 153.5,339.5 153.333,201.5 153.5,63.5C 153.185,59.6286 153.518,55.9619 154.5,52.5 Z"/></g>
<g><path style="opacity:1" fill="#d6c79f" d="M 73.5,23.5 C 106.167,22.1667 138.833,22.1667 171.5,23.5C 166.5,26.5 162.5,30.5 159.5,35.5C 155.842,40.4415 154.176,46.1082 154.5,52.5C 153.518,55.9619 153.185,59.6286 153.5,63.5C 152.5,198.666 152.167,333.999 152.5,469.5C 151.667,334.667 151.167,199.667 151,64.5C 150.586,64.0426 150.086,63.7093 149.5,63.5C 148.316,59.0096 148.316,54.5096 149.5,50C 151.587,43.3112 154.42,36.8112 158,30.5C 159.819,28.4974 161.985,27.164 164.5,26.5C 164.5,25.5 164.5,24.5 164.5,23.5C 137.857,24.298 111.19,24.798 84.5,25C 88.0279,32.5841 91.3612,40.2508 94.5,48C 94.6619,189.686 94.4952,331.519 94,473.5C 93.79,475.058 93.29,476.391 92.5,477.5C 92.6667,335.5 92.5,193.5 92,51.5C 91.8091,49.2922 91.3091,47.2922 90.5,45.5C 89.4336,43.2986 88.767,40.9653 88.5,38.5C 88.0023,35.6737 86.6689,33.3403 84.5,31.5C 83.8333,28.8333 82.1667,27.1667 79.5,26.5C 79.0269,25.0937 78.0269,24.427 76.5,24.5C 75.609,23.8902 74.609,23.5569 73.5,23.5 Z"/></g>
<g><path style="opacity:0.219" fill="#3c3724" d="M 159.5,35.5 C 158.237,40.1256 157.071,44.7923 156,49.5C 155.5,191.833 155.333,334.166 155.5,476.5C 154.5,335.334 154.167,194.001 154.5,52.5C 154.176,46.1082 155.842,40.4415 159.5,35.5 Z"/></g>
<g><path style="opacity:0.217" fill="#393223" d="M 90.5,45.5 C 91.3091,47.2922 91.8091,49.2922 92,51.5C 92.5,193.5 92.6667,335.5 92.5,477.5C 91.8333,478.833 91.1667,480.167 90.5,481.5C 90.5674,336.181 90.5674,190.847 90.5,45.5 Z"/></g>
<g><path style="opacity:0.016" fill="#21201d" d="M 404.5,440.5 C 403.833,441.5 403.167,442.5 402.5,443.5C 402.231,441.571 402.731,439.905 404,438.5C 404.464,439.094 404.631,439.761 404.5,440.5 Z"/></g>
<g><path style="opacity:0.769" fill="#5a5345" d="M 402.5,444.5 C 402.5,444.833 402.5,445.167 402.5,445.5C 402.539,448.089 401.539,450.089 399.5,451.5C 399.935,448.843 400.935,446.509 402.5,444.5 Z"/></g>
<g><path style="opacity:0.145" fill="#2d291e" d="M 399.5,451.5 C 399.573,453.027 398.906,454.027 397.5,454.5C 397.427,452.973 398.094,451.973 399.5,451.5 Z"/></g>
<g><path style="opacity:0.231" fill="#231d14" d="M 397.5,454.5 C 397.573,456.027 396.906,457.027 395.5,457.5C 395.427,455.973 396.094,454.973 397.5,454.5 Z"/></g>
<g><path style="opacity:1" fill="#d9c79a" d="M 402.5,445.5 C 403.49,451.31 403.823,457.31 403.5,463.5C 402.504,476.99 402.171,490.656 402.5,504.5C 378.674,504.466 355.007,504.466 331.5,504.5C 329.813,504.24 328.313,503.573 327,502.5C 325.687,503.573 324.187,504.24 322.5,504.5C 315.284,503.214 308.117,503.214 301,504.5C 300.25,503.874 299.416,503.374 298.5,503C 307.944,500.22 317.61,498.553 327.5,498C 332.453,496.632 337.12,494.799 341.5,492.5C 341.5,492.167 341.5,491.833 341.5,491.5C 341.833,491.5 342.167,491.5 342.5,491.5C 348.059,490.652 353.059,488.652 357.5,485.5C 359.553,485.598 361.22,484.931 362.5,483.5C 364.181,481.992 366.181,480.992 368.5,480.5C 370.027,480.573 371.027,479.906 371.5,478.5C 373.027,478.573 374.027,477.906 374.5,476.5C 375.514,475.326 376.847,474.66 378.5,474.5C 381.089,473.581 383.089,471.914 384.5,469.5C 385.29,468.599 386.29,467.932 387.5,467.5C 390.573,465.431 392.906,462.764 394.5,459.5C 394.328,458.508 394.662,457.842 395.5,457.5C 396.906,457.027 397.573,456.027 397.5,454.5C 398.906,454.027 399.573,453.027 399.5,451.5C 401.539,450.089 402.539,448.089 402.5,445.5 Z"/></g>
<g><path style="opacity:0.278" fill="#4f4738" d="M 394.5,459.5 C 392.906,462.764 390.573,465.431 387.5,467.5C 389.094,464.236 391.427,461.569 394.5,459.5 Z"/></g>
<g><path style="opacity:0.628" fill="#544e40" d="M 404.5,440.5 C 404.694,462.8 404.694,485.133 404.5,507.5C 292.999,507.833 181.665,507.499 70.5,506.5C 155.5,506.5 240.5,506.5 325.5,506.5C 351.5,506.5 377.5,506.5 403.5,506.5C 403.5,492.167 403.5,477.833 403.5,463.5C 403.823,457.31 403.49,451.31 402.5,445.5C 402.5,445.167 402.5,444.833 402.5,444.5C 402.5,444.167 402.5,443.833 402.5,443.5C 403.167,442.5 403.833,441.5 404.5,440.5 Z"/></g>
<g><path style="opacity:0.263" fill="#454030" d="M 88.5,489.5 C 88.123,493.212 86.4563,496.212 83.5,498.5C 84.7738,495.24 86.4405,492.24 88.5,489.5 Z"/></g>
<g><path style="opacity:0.298" fill="#3c3526" d="M 81.5,500.5 C 80.1979,502.822 78.1979,504.155 75.5,504.5C 77.1475,502.674 79.1475,501.34 81.5,500.5 Z"/></g>
<g><path style="opacity:0.984" fill="#d3c4a1" d="M 153.5,63.5 C 153.333,201.5 153.5,339.5 154,477.5C 154.21,479.058 154.71,480.391 155.5,481.5C 155.259,483.898 155.926,485.898 157.5,487.5C 157.402,489.553 158.069,491.22 159.5,492.5C 160.338,492.842 160.672,493.508 160.5,494.5C 160.427,496.027 161.094,497.027 162.5,497.5C 162.414,498.496 162.748,499.329 163.5,500C 209.002,500.831 254.335,500.665 299.5,499.5C 302.728,498.586 306.061,498.253 309.5,498.5C 314.894,498.876 319.894,497.876 324.5,495.5C 324.833,495.5 325.167,495.5 325.5,495.5C 330.907,494.921 336.24,493.921 341.5,492.5C 337.12,494.799 332.453,496.632 327.5,498C 317.61,498.553 307.944,500.22 298.5,503C 299.416,503.374 300.25,503.874 301,504.5C 308.117,503.214 315.284,503.214 322.5,504.5C 324.187,504.24 325.687,503.573 327,502.5C 328.313,503.573 329.813,504.24 331.5,504.5C 355.007,504.466 378.674,504.466 402.5,504.5C 402.171,490.656 402.504,476.99 403.5,463.5C 403.5,477.833 403.5,492.167 403.5,506.5C 377.5,506.5 351.5,506.5 325.5,506.5C 247.335,505.501 169.002,505.167 90.5,505.5C 114.33,504.668 138.33,504.168 162.5,504C 162.957,503.586 163.291,503.086 163.5,502.5C 160.425,500.82 158.925,498.154 159,494.5C 157.667,493.833 156.333,493.167 155,492.5C 153.426,484.911 152.593,477.244 152.5,469.5C 152.167,333.999 152.5,198.666 153.5,63.5 Z"/></g>
<g><path style="opacity:0.063" fill="#141204" d="M 162.5,497.5 C 163.289,497.783 163.956,498.283 164.5,499C 209.499,499.5 254.499,499.667 299.5,499.5C 254.335,500.665 209.002,500.831 163.5,500C 162.748,499.329 162.414,498.496 162.5,497.5 Z"/></g>
<g><path style="opacity:0.541" fill="#514c3d" d="M 324.5,495.5 C 319.894,497.876 314.894,498.876 309.5,498.5C 314.35,497.377 319.35,496.377 324.5,495.5 Z"/></g>
<g><path style="opacity:0.255" fill="#4c3e2e" d="M 160.5,494.5 C 161.906,494.973 162.573,495.973 162.5,497.5C 161.094,497.027 160.427,496.027 160.5,494.5 Z"/></g>
<g><path style="opacity:0.341" fill="#473e30" d="M 341.5,491.5 C 341.5,491.833 341.5,492.167 341.5,492.5C 336.24,493.921 330.907,494.921 325.5,495.5C 330.582,493.563 335.915,492.23 341.5,491.5 Z"/></g>
<g><path style="opacity:0.051" fill="#211e13" d="M 157.5,487.5 C 158.931,488.78 159.598,490.447 159.5,492.5C 158.069,491.22 157.402,489.553 157.5,487.5 Z"/></g>
<g><path style="opacity:0.529" fill="#665c4b" d="M 357.5,485.5 C 353.059,488.652 348.059,490.652 342.5,491.5C 347.117,488.734 352.117,486.734 357.5,485.5 Z"/></g>
<g><path style="opacity:0.035" fill="#282715" d="M 362.5,483.5 C 361.22,484.931 359.553,485.598 357.5,485.5C 358.78,484.069 360.447,483.402 362.5,483.5 Z"/></g>
<g><path style="opacity:0.192" fill="#382f25" d="M 155.5,479.5 C 156.531,481.961 157.198,484.627 157.5,487.5C 155.926,485.898 155.259,483.898 155.5,481.5C 155.5,480.833 155.5,480.167 155.5,479.5 Z"/></g>
<g><path style="opacity:0.31" fill="#423d28" d="M 371.5,478.5 C 371.027,479.906 370.027,480.573 368.5,480.5C 368.973,479.094 369.973,478.427 371.5,478.5 Z"/></g>
<g><path style="opacity:0.231" fill="#363021" d="M 374.5,476.5 C 374.027,477.906 373.027,478.573 371.5,478.5C 371.973,477.094 372.973,476.427 374.5,476.5 Z"/></g>
<g><path style="opacity:0.565" fill="#5e5540" d="M 384.5,469.5 C 383.089,471.914 381.089,473.581 378.5,474.5C 379.911,472.086 381.911,470.419 384.5,469.5 Z"/></g>
<g><path style="opacity:1" fill="#dbc698" d="M 168.5,503.5 C 207.669,502.169 247.002,502.169 286.5,503.5C 247.155,504.797 207.822,504.797 168.5,503.5 Z"/></g>
<g><path style="opacity:0.753" fill="#aca28c" d="M 75.5,504.5 C 80.3054,505.487 85.3054,505.821 90.5,505.5C 169.002,505.167 247.335,505.501 325.5,506.5C 240.5,506.5 155.5,506.5 70.5,506.5C 70.0618,506.565 69.7284,506.399 69.5,506C 71.3453,504.872 73.3453,504.372 75.5,504.5 Z"/></g>
</svg>
